HIERARCHY
ROOT Hips
{
	OFFSET -0.001795 -0.223333 0.028219
	CHANNELS 6 Xposition Yposition Zposition Zrotation Yrotation Xrotation 
	JOINT LeftUpLeg
	{
		OFFSET 0.069520 -0.091406 -0.006815
		CHANNELS 3 Zrotation Yrotation Xrotation
		JOINT LeftLeg
		{
			OFFSET 0.034277 -0.375199 -0.004496
			CHANNELS 3 Zrotation Yrotation Xrotation
			JOINT LeftFoot
			{
				OFFSET -0.013596 -0.397961 -0.043693
				CHANNELS 3 Zrotation Yrotation Xrotation
				JOINT LeftToe
				{
					OFFSET 0.026358 -0.055791 0.119288
					CHANNELS 3 Zrotation Yrotation Xrotation
					End Site
					{
						OFFSET 0.000000 0.000000 0.000000
					}
				}
			}
		}
	}
	JOINT RightUpLeg
	{
		OFFSET -0.067670 -0.090522 -0.004320
		CHANNELS 3 Zrotation Yrotation Xrotation
		JOINT RightLeg
		{
			OFFSET -0.038290 -0.382569 -0.008850
			CHANNELS 3 Zrotation Yrotation Xrotation
			JOINT RightFoot
			{
				OFFSET 0.015774 -0.398415 -0.042312
				CHANNELS 3 Zrotation Yrotation Xrotation
				JOINT RightToe
				{
					OFFSET -0.025372 -0.048144 0.123348
					CHANNELS 3 Zrotation Yrotation Xrotation
					End Site
					{
						OFFSET 0.000000 0.000000 0.000000
					}
				}
			}
		}
	}
	JOINT Spine
	{
		OFFSET -0.002533 0.108963 -0.026696
		CHANNELS 3 Zrotation Yrotation Xrotation
		JOINT Spine1
		{
			OFFSET 0.005487 0.135180 0.001092
			CHANNELS 3 Zrotation Yrotation Xrotation
			JOINT Spine2
			{
				OFFSET 0.001457 0.052922 0.025425
				CHANNELS 3 Zrotation Yrotation Xrotation
				JOINT Neck
				{
					OFFSET -0.002778 0.213870 -0.042857
					CHANNELS 3 Zrotation Yrotation Xrotation
					JOINT Head
					{
						OFFSET 0.005152 0.064970 0.051349
						CHANNELS 3 Zrotation Yrotation Xrotation
						End Site
						{
							OFFSET 0.000000 0.000000 0.000000
						}
					}
				}
				JOINT LeftShoulder
				{
					OFFSET 0.078845 0.121749 -0.034090
					CHANNELS 3 Zrotation Yrotation Xrotation
					JOINT LeftArm
					{
						OFFSET 0.090977 0.030469 -0.008868
						CHANNELS 3 Zrotation Yrotation Xrotation
						JOINT LeftForeArm
						{
							OFFSET 0.259612 -0.012772 -0.027456
							CHANNELS 3 Zrotation Yrotation Xrotation
							JOINT LeftHand
							{
								OFFSET 0.249234 0.008986 -0.001171
								CHANNELS 3 Zrotation Yrotation Xrotation
								End Site
								{
									OFFSET 0.000000 0.000000 0.000000
								}
							}
						}
					}
				}
				JOINT RightShoulder
				{
					OFFSET -0.081759 0.118833 -0.038615
					CHANNELS 3 Zrotation Yrotation Xrotation
					JOINT RightArm
					{
						OFFSET -0.096012 0.032551 -0.009143
						CHANNELS 3 Zrotation Yrotation Xrotation
						JOINT RightForeArm
						{
							OFFSET -0.253742 -0.013329 -0.021401
							CHANNELS 3 Zrotation Yrotation Xrotation
							JOINT RightHand
							{
								OFFSET -0.255298 0.007772 -0.005559
								CHANNELS 3 Zrotation Yrotation Xrotation
								End Site
								{
									OFFSET 0.000000 0.000000 0.000000
								}
							}
						}
					}
				}
			}
		}
	}
}
MOTION
Frames: 10
Frame Time: 0.050000
0.000000 0.942325 0.000000 0.453589 -3.229584 6.872489 5.132045 -0.267852 -3.145900 -0.467258 0.220193 -5.476415 1.696024 6.396102 9.555425 0.000000 0.000000 0.000000 -4.449103 0.439630 -3.779513 -2.011244 -0.075116 -4.794799 -0.921415 -6.467397 9.928867 0.000000 0.000000 0.000000 5.205718 0.414600 -6.454560 -3.077240 1.384835 -4.736797 -4.398183 5.311662 6.194300 5.493590 -2.328271 -12.237836 0.000000 0.000000 0.000000 -15.909594 -0.691171 -2.015435 -55.522219 -5.911792 -3.951442 -6.108721 -16.103450 1.354269 0.000000 0.000000 0.000000 12.887100 -6.902281 -3.796678 65.443240 3.347849 -4.247757 7.379753 21.498731 2.190007 0.000000 0.000000 0.000000 
0.000118 0.941811 0.000034 0.533129 -3.553685 7.744220 4.931729 -0.267022 -2.921360 -0.360719 0.264438 -6.952590 1.926574 6.793209 9.698373 0.000000 0.000000 0.000000 -4.465648 0.523259 -4.934770 -2.461768 -0.042172 -4.621069 -0.610926 -6.063556 10.415206 0.000000 0.000000 0.000000 6.331820 0.491828 -7.060106 -3.826514 1.693716 -4.757724 -5.610854 5.802207 5.437302 5.284431 -2.003702 -13.036462 0.000000 0.000000 0.000000 -16.733205 -0.219861 -2.516084 -54.210238 -6.153694 -3.617094 -6.081817 -15.806607 1.304180 0.000000 0.000000 0.000000 12.585897 -8.318042 -4.388352 66.967095 2.343211 -4.712929 7.423106 21.303612 2.191184 0.000000 0.000000 0.000000 
0.000126 0.941795 -0.000089 0.991263 -3.320829 7.636962 4.401295 -0.303842 -3.586114 -0.162593 0.187818 -5.114254 1.557086 5.864835 8.471096 0.000000 0.000000 0.000000 -4.841767 0.529246 -5.043587 -2.606562 -0.033716 -4.635258 -1.385048 -7.541311 10.401238 0.000000 0.000000 0.000000 6.052114 0.472108 -6.951443 -3.843383 1.690962 -5.341252 -5.792408 4.998794 5.686791 4.474867 -1.672857 -12.132150 0.000000 0.000000 0.000000 -16.632195 -0.631028 -2.139684 -54.361849 -6.153691 -3.679721 -5.133357 -14.987061 1.136761 0.000000 0.000000 0.000000 13.636899 -6.944399 -3.931051 65.569088 2.286043 -4.832562 7.368640 21.517739 2.177537 0.000000 0.000000 0.000000 
0.000012 0.942144 -0.000151 1.289139 -3.023427 8.092404 4.479156 -0.325134 -3.855494 -0.498706 0.224961 -5.575706 1.049460 5.175995 9.133919 0.000000 0.000000 0.000000 -5.135299 0.563470 -5.556143 -2.774068 -0.048840 -5.042271 -1.622923 -8.214792 11.245206 0.000000 0.000000 0.000000 6.101033 0.487401 -7.222228 -4.174628 1.845371 -4.719768 -6.064646 4.349467 4.369135 3.981139 -1.561269 -10.683948 0.000000 0.000000 0.000000 -16.807650 -0.337500 -2.275246 -54.476628 -7.004675 -3.166069 -3.797118 -13.904423 0.896796 0.000000 0.000000 0.000000 12.691233 -7.005942 -3.926590 66.014121 1.985010 -4.874265 8.126323 21.825458 2.313701 0.000000 0.000000 0.000000 
-0.000221 0.942717 -0.000286 1.538747 -2.671361 7.946442 3.981359 -0.339589 -4.023426 -0.169386 0.190607 -5.197141 0.935117 5.001321 9.091529 0.000000 0.000000 0.000000 -5.172306 0.556481 -5.530461 -3.226994 -0.025638 -5.084248 -1.829528 -8.604066 11.380088 0.000000 0.000000 0.000000 5.855086 0.449442 -6.912926 -4.010756 1.777324 -4.852285 -6.249899 4.057290 4.437944 3.392550 -1.143927 -10.901680 0.000000 0.000000 0.000000 -16.802969 -0.740715 -2.059056 -54.393951 -7.712473 -2.845382 -3.827758 -13.367555 0.868104 0.000000 0.000000 0.000000 12.691254 -6.927793 -3.895784 65.713796 2.198255 -4.746754 7.929736 21.531873 2.241338 0.000000 0.000000 0.000000 
-0.000466 0.943139 -0.000349 1.769105 -2.416208 8.268598 3.887732 -0.360178 -4.282654 -0.341950 0.203715 -5.260311 0.965212 5.129393 9.270765 0.000000 0.000000 0.000000 -5.220237 0.560891 -5.577635 -3.668441 -0.040888 -5.651375 -2.002696 -9.111092 12.186918 0.000000 0.000000 0.000000 5.631301 0.456163 -7.145248 -4.038516 1.789808 -4.874092 -6.328781 3.871027 4.229155 3.163735 -1.026913 -10.623862 0.000000 0.000000 0.000000 -17.243631 -0.589350 -2.203581 -54.017702 -8.046133 -2.635382 -3.466796 -12.916819 0.798801 0.000000 0.000000 0.000000 12.523312 -6.685900 -3.766476 65.885700 2.185527 -4.732484 7.676709 21.449928 2.182305 0.000000 0.000000 0.000000 
-0.000683 0.943403 -0.000440 1.801277 -2.181606 8.327906 3.805097 -0.372851 -4.455017 -0.243680 0.193113 -5.143683 1.016648 5.351690 9.658628 0.000000 0.000000 0.000000 -5.130726 0.563200 -5.653901 -3.881417 -0.027963 -5.630085 -1.904593 -8.911689 12.234909 0.000000 0.000000 0.000000 5.515720 0.442315 -7.067062 -3.914669 1.740645 -4.847065 -6.398209 3.541815 4.124523 3.113887 -0.940288 -11.154115 0.000000 0.000000 0.000000 -17.197072 -0.535312 -2.186978 -54.105428 -7.981437 -2.663410 -3.625686 -12.985618 0.823397 0.000000 0.000000 0.000000 12.617281 -6.639279 -3.782363 65.861426 2.323476 -4.659011 7.499669 21.446082 2.142642 0.000000 0.000000 0.000000 
-0.000826 0.943719 -0.000571 1.839843 -1.841123 8.625113 3.752059 -0.404616 -4.910256 -0.156052 0.176908 -4.846360 1.008114 5.330158 9.515029 0.000000 0.000000 0.000000 -5.125646 0.576531 -5.885468 -4.038459 -0.017605 -5.610229 -2.009668 -9.045480 12.166053 0.000000 0.000000 0.000000 5.427034 0.434611 -7.113906 -3.876905 1.725068 -4.954451 -6.520140 3.414687 4.006850 2.862381 -0.805301 -10.846391 0.000000 0.000000 0.000000 -17.094504 -0.567606 -2.177010 -53.854338 -8.077184 -2.592362 -4.152646 -13.116254 0.888580 0.000000 0.000000 0.000000 12.626385 -6.760148 -3.832855 65.973217 2.208634 -4.704137 7.451459 21.496814 2.142016 0.000000 0.000000 0.000000 
-0.000954 0.944174 -0.000757 1.944518 -1.724754 8.781998 3.638744 -0.425957 -5.210201 -0.168983 0.173407 -4.719942 0.982723 5.305636 9.540537 0.000000 0.000000 0.000000 -5.155454 0.580995 -5.949550 -4.065636 -0.029885 -5.797570 -2.001330 -9.021727 12.199279 0.000000 0.000000 0.000000 5.310767 0.429217 -7.136276 -3.852569 1.713454 -5.065945 -6.456324 3.256656 3.961771 2.577522 -0.618447 -10.901171 0.000000 0.000000 0.000000 -16.865480 -0.441409 -2.183967 -53.838201 -8.266279 -2.509267 -4.599726 -12.964047 0.929264 0.000000 0.000000 0.000000 12.521677 -6.623108 -3.770604 65.899529 2.320969 -4.635630 7.499968 21.462445 2.140388 0.000000 0.000000 0.000000 
-0.001120 0.944569 -0.000964 2.024292 -1.540963 8.903125 3.630146 -0.443387 -5.467211 -0.265453 0.174806 -4.568441 0.994757 5.351517 9.560686 0.000000 0.000000 0.000000 -5.207903 0.582770 -5.986899 -4.059734 -0.052194 -6.102954 -2.028910 -9.094913 12.388599 0.000000 0.000000 0.000000 5.288246 0.421170 -7.102769 -3.891323 1.728822 -5.176044 -6.496648 3.296186 3.884331 2.370885 -0.468619 -10.913820 0.000000 0.000000 0.000000 -16.564339 -0.592750 -2.098378 -53.840143 -8.554192 -2.375074 -5.054949 -12.861710 0.968648 0.000000 0.000000 0.000000 12.523098 -6.659910 -3.769378 65.844539 2.424816 -4.547450 7.311743 21.493043 2.116788 0.000000 0.000000 0.000000 
